PathFileType	4	(X/Y/Z)	Walk3.trc
DataRate	CameraRate	NumFrames	NumMarkers	Units	OrigDataRate	OrigDataStartFrame	OrigNumFrames
200.000000	200.000000	4	59	mm	200.000000	390	545
Frame#	Times		LBHD		C7		T10		RBack		LPSI		RPSI		RCAR		LElbowM		RElbowM		LUA1		LLFC		LFHD		RFA1		LWRU		LCAR		RTB1		LACR1		RUA1		CLAV		RTH2		RTH3		LWRR		RToe		RACR1		RTB3		RTB4		RWRU		RCAL		RMT5		RBHD		RTH4		RLFC		LFA1		RTH1		RWRR		RMT1		RFHD		LTH1		STRN		LTH3		LTH4		RTB2		RElbow		RMMAL		LElbow		LTH2		LTB3		RASI		LASI		LCAL		LMT1		LTB2		LLMAL		RLMAL		LMT5		LToe		LTB1		LMMAL		LTB4
			X1	Y1	Z1	X2	Y2	Z2	X3	Y3	Z3	X4	Y4	Z4	X5	Y5	Z5	X6	Y6	Z6	X7	Y7	Z7	X8	Y8	Z8	X9	Y9	Z9	X10	Y10	Z10	X11	Y11	Z11	X12	Y12	Z12	X13	Y13	Z13	X14	Y14	Z14	X15	Y15	Z15	X16	Y16	Z16	X17	Y17	Z17	X18	Y18	Z18	X19	Y19	Z19	X20	Y20	Z20	X21	Y21	Z21	X22	Y22	Z22	X23	Y23	Z23	X24	Y24	Z24	X25	Y25	Z25	X26	Y26	Z26	X27	Y27	Z27	X28	Y28	Z28	X29	Y29	Z29	X30	Y30	Z30	X31	Y31	Z31	X32	Y32	Z32	X33	Y33	Z33	X34	Y34	Z34	X35	Y35	Z35	X36	Y36	Z36	X37	Y37	Z37	X38	Y38	Z38	X39	Y39	Z39	X40	Y40	Z40	X41	Y41	Z41	X42	Y42	Z42	X43	Y43	Z43	X44	Y44	Z44	X45	Y45	Z45	X46	Y46	Z46	X47	Y47	Z47	X48	Y48	Z48	X49	Y49	Z49	X50	Y50	Z50	X51	Y51	Z51	X52	Y52	Z52	X53	Y53	Z53	X54	Y54	Z54	X55	Y55	Z55	X56	Y56	Z56	X57	Y57	Z57	X58	Y58	Z58	X59	Y59	Z59

390	1.95	52.074	1502.2	-44.577	18.874	1367.9	26.72	-10.761	1097.2	14.362	-1.538	1265.6	154.21	-32.374	903.57	-26.255	-31.817	910.27	73.132	181.17	752.99	316.09	27.259	990.49	-185.88	45.295	965.66	204.37	95.481	1142.3	-229.21	184.7	466.25	-158.35	224.32	1496.1	-20.262	95.131	876.66	291.57	142.12	789.25	-275.72	199.42	764.43	-290.7	169.26	334.97	58.453	97.268	1311.5	-139.84	105.94	1146.3	253.87	144.55	1289	27.636	195.38	665.66	153.21	134.54	557.36	166.16	204.95	800.79	-238.25	282.12	26.642	25.373	96.33	1305.2	178.22	164.53	149.92	53.349	159.95	242.62	59.013	131.78	771.27	282.55	74.714	37.126	81.787	212.76	32.326	81.827	49.543	1511	78.717	130.33	650.31	190.43	153.77	458.71	146.55	99.001	904.35	-273.07	129.33	736.2	216.34	202.26	792.25	269.98	224.58	51.343	26.865	229.86	1506.1	56.637	142.18	758.11	-184.66	207.13	1184.7	20.517	194.41	577.46	-161.16	170.96	669.4	-171.74	144.82	241.19	129.69	81.913	1003.5	286.71	128.15	74.356	21.318	58.794	1025	-250.8	232.76	693.94	-140.11	35.692	221.22	-57.091	184.5	889.37	165.05	164.34	881.51	-147.82	-115.5	194.33	-21.245	-8.6813	91.305	-60.096	59.34	313.38	-127.37	-76.807	190.88	-76.826	135.6	63.351	99.344	-51.996	102.33	-101.28	2.036	44.29	-87.12	164.57	346.76	-85.66	-40.356	169.98	-8.8591	92.784	290.79	-68.561
391	1.955	57.542	1502.4	-44.23	24.498	1368.1	27.01	-5.5752	1097.5	14.682	4.0593	1265.8	154.56	-27.377	903.86	-26.17	-26.983	910.64	73.168	191.05	754.16	315.43	32.169	990.73	-185.53	52.027	965.42	205.12	100.11	1142.5	-229.08	194.79	467.41	-157.61	229.81	1496.4	-20.027	103.51	876.91	291.79	146.26	789.39	-276.04	203.51	764.52	-291.2	170.13	334.8	58.502	102.48	1311.6	-139.66	112.01	1146.5	254.11	150.07	1289.1	27.722	198.6	665.17	153.12	136.96	557.35	166.2	209.22	800.7	-238.6	282.11	26.314	24.851	102.09	1305.3	178.34	164.8	149.76	53.181	160.43	242.46	58.963	141.16	771.98	282.52	74.739	37.187	81.737	212.78	32.301	81.777	55.083	1511	79.078	133.47	650.32	190.56	155.14	458.59	146.71	103.46	904.61	-273.15	133.25	736.19	216.54	211.31	793.69	269.18	224.59	50.957	26.534	235.37	1506.3	56.871	148.5	758.66	-184.53	212.48	1184.6	20.313	203.13	578.74	-160.65	178.49	670.35	-171.44	145.48	241.11	129.66	88.869	1003.6	287.18	128.16	74.299	21.178	63.421	1025.2	-250.58	239.85	695.73	-139.62	49.733	219.73	-56.74	188.73	889.86	165.49	169.28	881.9	-148.27	-101.37	189.18	-21.468	9.0518	89.903	-60.074	71.804	312.35	-126.97	-62.027	186.97	-76.889	135.65	63.318	99.224	-34.349	99.55	-101.42	21.583	43.431	-87.249	176.38	347.66	-84.97	-25.423	167.01	-8.7145	105.49	290.38	-68.073
392	1.96	63.011	1502.4	-43.893	30.119	1368.2	27.289	-0.39647	1097.8	14.969	9.6389	1265.9	154.9	-22.389	904.07	-26.121	-22.149	910.93	73.18	200.93	755.31	314.75	37.092	990.93	-185.19	58.78	965.13	205.84	104.75	1142.7	-228.94	204.78	468.53	-156.81	235.3	1496.7	-19.816	111.89	877.12	291.99	150.4	789.48	-276.37	207.59	764.55	-291.7	171	334.63	58.528	107.71	1311.8	-139.49	118.09	1146.6	254.33	155.58	1289.1	27.804	201.89	664.63	152.99	139.45	557.31	166.21	213.48	800.55	-238.95	282.11	25.992	24.283	107.83	1305.3	178.45	165.08	149.6	53.004	160.93	242.32	58.908	150.53	772.67	282.51	74.77	37.256	81.664	212.8	32.276	81.714	60.636	1511	79.427	136.71	650.29	190.67	156.54	458.44	146.85	107.91	904.82	-273.24	137.24	736.14	216.72	220.35	795.09	268.37	224.6	50.538	26.176	240.9	1506.5	57.07	154.77	759.12	-184.44	217.82	1184.5	20.115	211.76	579.97	-160.09	185.98	671.22	-171.11	146.17	241.03	129.61	95.832	1003.6	287.63	128.18	74.232	21.022	68.037	1025.4	-250.36	246.87	697.44	-139.1	63.943	218.11	-56.356	192.96	890.28	165.91	174.2	882.18	-148.68	-86.943	183.71	-21.739	27.062	88.38	-59.949	84.364	311.16	-126.57	-46.967	182.77	-76.975	135.71	63.285	99.089	-16.36	96.574	-101.51	41.45	42.515	-87.212	188.14	348.53	-84.182	-10.252	163.84	-8.5613	118.29	289.86	-67.547
393	1.965	68.484	1502.4	-43.567	35.736	1368.2	27.556	4.7758	1098	15.223	15.201	1266	155.21	-17.407	904.19	-26.106	-17.313	911.14	73.169	210.78	756.45	314.07	42.024	991.06	-184.84	65.554	964.78	206.53	109.43	1142.8	-228.81	214.67	469.59	-155.96	240.8	1496.9	-19.627	120.28	877.27	292.15	154.53	789.51	-276.72	211.67	764.52	-292.22	171.88	334.45	58.532	112.95	1311.8	-139.31	124.17	1146.6	254.54	161.09	1289	27.884	205.25	664.04	152.83	142	557.24	166.2	217.74	800.34	-239.3	282.1	25.683	23.676	113.56	1305.3	178.54	165.37	149.43	52.822	161.47	242.19	58.855	159.9	773.35	282.5	74.806	37.333	81.566	212.83	32.25	81.637	66.2	1510.9	79.763	140.04	650.2	190.74	157.96	458.28	146.95	112.34	904.97	-273.34	141.32	736.04	216.88	229.37	796.45	267.55	224.61	50.091	25.796	246.44	1506.7	57.234	161	759.51	-184.38	223.15	1184.3	19.926	220.31	581.13	-159.49	193.42	672.01	-170.76	146.86	240.94	129.55	102.8	1003.6	288.05	128.19	74.157	20.851	72.647	1025.6	-250.15	253.82	699.06	-138.56	78.314	216.36	-55.938	197.19	890.62	166.3	179.1	882.35	-149.07	-72.212	177.98	-22.045	45.326	86.759	-59.739	97.019	309.83	-126.16	-31.629	178.34	-77.079	135.77	63.255	98.938	1.9429	93.437	-101.55	61.596	41.567	-87.033	199.84	349.36	-83.3	5.1516	160.49	-8.4018	131.17	289.25	-66.983
